<?xml version="1.0" encoding="UTF-8" standalone="no"?>
<!DOCTYPE svg PUBLIC "-//W3C//DTD SVG 1.1//EN" "http://www.w3.org/Graphics/SVG/1.1/DTD/svg11.dtd">
<svg width="100%" height="100%" viewBox="0 0 4000 4000" version="1.1" xmlns="http://www.w3.org/2000/svg" xmlns:xlink="http://www.w3.org/1999/xlink" xml:space="preserve" xmlns:serif="http://www.serif.com/" style="fill-rule:evenodd;clip-rule:evenodd;stroke-linejoin:round;stroke-miterlimit:2;">
    <g transform="matrix(1.85124,0,0,1.85124,-1691.98,695.647)">
        <g transform="matrix(1,0,0,1,3063.37,1098.38)">
            <g id="SUN">
                <path d="M0,0C0,222.167 -180.102,402.27 -402.27,402.27C-624.437,402.27 -804.539,222.167 -804.539,0C-804.539,-222.167 -624.437,-402.27 -402.27,-402.27C-180.102,-402.27 0,-222.167 0,0" style="fill:rgb(237,109,0);fill-rule:nonzero;"/>
            </g>
        </g>
        <g transform="matrix(1,0,0,1,3491.88,684.711)">
            <g id="MOUNTAINS">
                <path d="M0,1111.66L-2906.72,1111.66C-2923.4,1111.66 -2931.18,1090.99 -2918.63,1079.99L-2173.72,427.082C-2167.83,421.924 -2159.3,421.138 -2152.57,425.135L-2043.56,489.9C-2036.35,494.183 -2027.14,492.947 -2021.32,486.914L-1926.07,388.253C-1918.79,380.717 -1906.66,380.922 -1899.64,388.699L-1849.84,443.894C-1842.46,452.072 -1829.55,451.808 -1822.51,443.336L-1461.54,8.809C-1454.23,0 -1440.67,0.127 -1433.52,9.071L-1200.77,300.164C-1193.59,309.143 -1179.96,309.228 -1172.67,300.34L-1107.73,221.161C-1100.5,212.356 -1087.04,212.34 -1079.8,221.127L-749.343,622.055C-743.32,629.362 -732.679,630.784 -724.949,625.313L-639.758,565.023C-633.125,560.329 -624.175,560.637 -617.881,565.776L11.434,1079.58C24.602,1090.33 16.999,1111.66 0,1111.66" style="fill:rgb(53,104,89);fill-rule:nonzero;"/>
            </g>
        </g>
        <g id="LEFT-TREE" serif:id="LEFT TREE">
        </g>
        <g transform="matrix(1,0,0,1,1375.06,1635.93)">
            <g id="MIDDLE-TREE" serif:id="MIDDLE TREE">
                <path d="M0,-218.138L0,-242.619C0,-245.976 -2.679,-248.626 -6.033,-248.77C-88.443,-252.319 -154.864,-328.273 -157.621,-422.287C-157.72,-425.661 -160.402,-428.371 -163.777,-428.371L-188.556,-428.371C-191.931,-428.371 -194.613,-425.661 -194.712,-422.287C-197.469,-328.273 -263.89,-252.319 -346.3,-248.77C-349.654,-248.626 -352.333,-245.976 -352.333,-242.619L-352.333,-218.138C-352.333,-214.629 -349.417,-211.718 -345.91,-211.845C-290.028,-213.872 -240.042,-242.267 -205.65,-286.174C-203.533,-288.876 -199.209,-286.753 -199.984,-283.408C-217.329,-208.598 -275.928,-152.707 -346.306,-149.676C-349.657,-149.532 -352.333,-146.887 -352.333,-143.534L-352.333,-119.044C-352.333,-115.535 -349.417,-112.624 -345.91,-112.751C-290.028,-114.779 -240.042,-143.173 -205.65,-187.08C-203.533,-189.783 -199.209,-187.659 -199.984,-184.314C-217.329,-109.504 -275.928,-53.613 -346.306,-50.582C-349.657,-50.438 -352.333,-47.794 -352.333,-44.44L-352.333,-19.951C-352.333,-16.442 -349.417,-13.53 -345.91,-13.658C-290.028,-15.685 -240.042,-44.079 -205.65,-87.986C-203.533,-90.689 -199.209,-88.565 -199.984,-85.221C-217.329,-10.41 -275.928,45.481 -346.306,48.511C-349.657,48.655 -352.333,51.3 -352.333,54.654L-352.333,79.138C-352.333,82.649 -349.413,85.563 -345.905,85.436C-287.157,83.301 -234.941,52.016 -200.498,4.209C-198.646,1.639 -194.622,2.859 -194.622,6.027L-194.622,204.01C-194.622,207.446 -191.836,210.233 -188.399,210.233L-163.934,210.233C-160.497,210.233 -157.71,207.446 -157.71,204.01L-157.711,6.027C-157.711,2.859 -153.687,1.639 -151.835,4.209C-117.392,52.016 -65.176,83.301 -6.428,85.436C-2.92,85.563 0,82.649 0,79.138L0,54.654C0,51.3 -2.676,48.655 -6.027,48.511C-76.405,45.481 -135.004,-10.41 -152.349,-85.221C-153.124,-88.565 -148.8,-90.689 -146.683,-87.986C-112.291,-44.079 -62.305,-15.685 -6.423,-13.658C-2.917,-13.53 0,-16.442 0,-19.951L0,-44.44C0,-47.794 -2.676,-50.438 -6.027,-50.582C-76.405,-53.613 -135.004,-109.504 -152.349,-184.314C-153.124,-187.659 -148.8,-189.783 -146.683,-187.08C-112.291,-143.173 -62.305,-114.779 -6.423,-112.751C-2.917,-112.624 0,-115.535 0,-119.044L0,-143.534C0,-146.887 -2.676,-149.532 -6.027,-149.676C-76.405,-152.707 -135.004,-208.598 -152.349,-283.408C-153.124,-286.753 -148.8,-288.876 -146.683,-286.174C-112.291,-242.267 -62.305,-213.872 -6.423,-211.845C-2.917,-211.718 0,-214.629 0,-218.138" style="fill:white;fill-rule:nonzero;"/>
            </g>
        </g>
        <g transform="matrix(1,0,0,1,2889.6,1573.2)">
            <g id="RIGHT-TREE" serif:id="RIGHT TREE">
                <path d="M0,-350.226L0,-389.532C0,-394.921 -4.302,-399.175 -9.687,-399.407C-141.998,-405.105 -248.64,-527.052 -253.066,-677.996C-253.225,-683.413 -257.53,-687.763 -262.95,-687.763L-302.732,-687.763C-308.152,-687.763 -312.458,-683.413 -312.616,-677.996C-317.043,-527.052 -423.685,-405.105 -555.996,-399.407C-561.381,-399.175 -565.683,-394.921 -565.683,-389.532L-565.683,-350.226C-565.683,-344.593 -561,-339.918 -555.37,-340.122C-465.65,-343.378 -385.396,-388.966 -330.179,-459.46C-326.779,-463.799 -319.837,-460.39 -321.082,-455.02C-348.929,-334.91 -443.012,-245.175 -556.007,-240.309C-561.387,-240.077 -565.683,-235.831 -565.683,-230.446L-565.683,-191.128C-565.683,-185.495 -561,-180.82 -555.37,-181.024C-465.65,-184.28 -385.396,-229.868 -330.179,-300.362C-326.779,-304.701 -319.837,-301.291 -321.082,-295.922C-348.929,-175.811 -443.012,-86.076 -556.007,-81.21C-561.387,-80.979 -565.683,-76.733 -565.683,-71.348L-565.683,-32.03C-565.683,-26.396 -561,-21.722 -555.37,-21.926C-465.65,-25.182 -385.396,-70.769 -330.179,-141.263C-326.779,-145.603 -319.837,-142.193 -321.082,-136.824C-348.929,-16.713 -443.012,73.022 -556.007,77.888C-561.387,78.12 -565.683,82.365 -565.683,87.751L-565.683,127.061C-565.683,132.697 -560.994,137.376 -555.361,137.171C-461.041,133.745 -377.205,83.515 -321.906,6.759C-318.934,2.632 -312.473,4.591 -312.473,9.677L-312.473,327.546C-312.473,333.064 -308,337.537 -302.481,337.537L-263.201,337.537C-257.683,337.537 -253.21,333.064 -253.21,327.546L-253.21,9.677C-253.21,4.591 -246.749,2.632 -243.776,6.759C-188.478,83.515 -104.643,133.745 -10.321,137.171C-4.688,137.376 0,132.697 0,127.061L0,87.751C0,82.365 -4.297,78.12 -9.677,77.888C-122.672,73.022 -216.754,-16.713 -244.601,-136.824C-245.846,-142.193 -238.903,-145.603 -235.505,-141.263C-180.287,-70.769 -100.032,-25.182 -10.313,-21.926C-4.683,-21.722 0,-26.396 0,-32.03L0,-71.348C0,-76.733 -4.297,-80.979 -9.677,-81.21C-122.672,-86.076 -216.754,-175.811 -244.601,-295.922C-245.846,-301.291 -238.903,-304.701 -235.505,-300.362C-180.287,-229.868 -100.032,-184.28 -10.313,-181.024C-4.683,-180.82 0,-185.495 0,-191.128L0,-230.446C0,-235.831 -4.297,-240.077 -9.677,-240.309C-122.672,-245.175 -216.754,-334.91 -244.601,-455.02C-245.846,-460.39 -238.903,-463.799 -235.505,-459.46C-180.287,-388.966 -100.032,-343.378 -10.313,-340.122C-4.683,-339.918 0,-344.593 0,-350.226" style="fill:white;fill-rule:nonzero;"/>
            </g>
        </g>
    </g>
    <g id="TYPE" transform="matrix(1.669,0,0,1.669,-1358.65,-2726.29)">
        <text x="959.87px" y="2696.73px" style="font-family:'BreeSerif-Regular', 'Bree Serif';font-size:333.384px;fill:white;">A<tspan x="1187.87px 1416.87px 1642.2px 1832.53px 2074.87px 2266.53px 2493.53px 2709.53px 2899.86px " y="2696.73px 2696.73px 2696.73px 2696.73px 2696.73px 2696.73px 2696.73px 2696.73px 2696.73px ">DVENTURES</tspan></text>
        <text x="1221.2px" y="2399.26px" style="font-family:'BreeSerif-Regular', 'Bree Serif';font-size:730.176px;fill:white;">PNW</text>
    </g>
</svg>
